<?xml version="1.0" encoding="utf-8"?>

<!DOCTYPE svg PUBLIC "-//W3C//DTD SVG 1.1//EN" "http://www.w3.org/Graphics/SVG/1.1/DTD/svg11.dtd">
<svg version="1.1" id="Layer_1" xmlns="http://www.w3.org/2000/svg" xmlns:xlink="http://www.w3.org/1999/xlink" x="0px" y="0px"
	 width="27px" height="27px" viewBox="0 0 27 27" enable-background="new 0 0 27 27" xml:space="preserve">
<g>
	<g>
		<path fill="#D8D8D8" d="M13.5,1C6.596,1,1,6.596,1,13.5C1,20.402,6.596,26,13.5,26C20.402,26,26,20.402,26,13.5
			C26,6.596,20.402,1,13.5,1z M13.5,23C8.254,23,4,18.747,4,13.5S8.254,4,13.5,4c5.247,0,9.5,4.253,9.5,9.5S18.747,23,13.5,23z"/>
	</g>
</g>
<path fill="#69A3BC" d="M13.808,6.321l-0.537,2.393H15.8l0.508-2.393H13.808z M15.624,10.11h-1.113l-2.861,0.107l-0.146,0.645
	c0.384,0.039,0.637,0.112,0.757,0.22s0.181,0.288,0.181,0.542c0,0.149-0.016,0.334-0.049,0.552s-0.092,0.522-0.176,0.913
	l-1.523,6.816h4.063l0.107-0.645c-0.358-0.039-0.61-0.119-0.757-0.244c-0.146-0.123-0.22-0.324-0.22-0.605
	c0-0.104,0.01-0.234,0.029-0.391s0.064-0.396,0.137-0.723L15.624,10.11z"/>
</svg>
