<?xml version="1.0" encoding="utf-8"?>

<!DOCTYPE svg PUBLIC "-//W3C//DTD SVG 1.1//EN" "http://www.w3.org/Graphics/SVG/1.1/DTD/svg11.dtd">
<svg version="1.1" id="Layer_1" xmlns="http://www.w3.org/2000/svg" xmlns:xlink="http://www.w3.org/1999/xlink" x="0px" y="0px"
	 width="88px" height="50px" viewBox="0 0 88 50" enable-background="new 0 0 88 50" xml:space="preserve">
<g>
	<path fill="#999999" d="M18.964,17.055v-1.942h-3.428v-6.96H13.13v8.903H18.964z"/>
	<path fill="#999999" d="M27.624,9.175c-0.73-0.775-1.804-1.163-3.221-1.163c-1.413,0-2.49,0.391-3.23,1.173
		c-0.741,0.781-1.111,1.913-1.111,3.395c0,1.498,0.373,2.638,1.117,3.422c0.745,0.783,1.816,1.175,3.212,1.175
		c1.417,0,2.493-0.39,3.228-1.169c0.735-0.779,1.103-1.918,1.103-3.417C28.72,11.089,28.354,9.951,27.624,9.175z M24.402,9.986
		c0.593,0,1.038,0.211,1.336,0.636c0.299,0.424,0.448,1.081,0.448,1.97c0,0.885-0.147,1.537-0.441,1.955S25,15.174,24.39,15.174
		c-1.197,0-1.796-0.861-1.796-2.583C22.594,10.854,23.197,9.986,24.402,9.986L24.402,9.986z"/>
	<path fill="#999999" d="M35.352,10.156c0.329,0.105,0.658,0.235,0.987,0.39l0.737-1.895c-0.877-0.418-1.796-0.627-2.759-0.627
		c-0.881,0-1.647,0.188-2.299,0.563S30.867,9.5,30.52,10.199c-0.347,0.698-0.521,1.508-0.521,2.43c0,1.474,0.358,2.6,1.075,3.379
		c0.716,0.78,1.747,1.169,3.09,1.169c0.938,0,1.778-0.165,2.521-0.494V14.65c-0.374,0.154-0.745,0.286-1.114,0.396
		c-0.37,0.109-0.751,0.164-1.145,0.164c-1.303,0-1.955-0.857-1.955-2.57c0-0.824,0.161-1.47,0.481-1.939
		c0.321-0.47,0.768-0.704,1.34-0.704C34.669,9.997,35.023,10.051,35.352,10.156z"/>
	<path fill="#999999" d="M43.269,12.141l2.807-3.989h-2.63l-1.87,2.729c-0.37,0.519-0.615,0.899-0.737,1.139V8.152h-2.417v8.903
		h2.417v-2.978l0.713-0.426l1.76,3.404h2.716L43.269,12.141z"/>
	<path fill="#999999" d="M52.274,15.095h-2.88v-1.681h2.667v-1.931h-2.667v-1.401h2.88v-1.93h-5.285v8.903h5.285V15.095z"/>
	<path fill="#999999" d="M60.225,9.249c-0.777-0.731-1.881-1.097-3.311-1.097h-3.08v8.903h2.88c1.482,0,2.631-0.401,3.45-1.206
		c0.818-0.803,1.227-1.949,1.227-3.435C61.391,11.035,61.002,9.979,60.225,9.249z M58.383,14.446
		c-0.341,0.425-0.877,0.637-1.607,0.637h-0.536v-4.988h0.7c0.657,0,1.147,0.197,1.47,0.591c0.323,0.394,0.485,0.999,0.485,1.815
		C58.895,13.374,58.724,14.021,58.383,14.446z"/>
</g>
<path fill-rule="evenodd" clip-rule="evenodd" fill="#999999" d="M73.952,11.212v-0.631c0-0.698-0.594-1.267-1.318-1.267
	c-0.729,0-1.318,0.568-1.318,1.267v0.631h-1.276v-0.631c0-1.375,1.163-2.494,2.595-2.494c1.431,0,2.594,1.119,2.594,2.494v0.631
	H73.952z M69.879,11.571h5.539c0.441,0.044,0.785,0.403,0.785,0.838v3.626c0,0.466-0.393,0.844-0.878,0.844h-5.352
	c-0.485,0-0.878-0.378-0.878-0.844v-3.626C69.096,11.974,69.439,11.615,69.879,11.571z"/>
<g>
	<path fill="#69A3BC" d="M18.964,41.972v-1.942h-3.428v-6.961H13.13v8.903H18.964z"/>
	<path fill="#69A3BC" d="M27.624,34.092c-0.73-0.775-1.804-1.163-3.221-1.163c-1.413,0-2.49,0.391-3.23,1.173
		c-0.741,0.781-1.111,1.913-1.111,3.395c0,1.498,0.373,2.639,1.117,3.423c0.745,0.782,1.816,1.175,3.212,1.175
		c1.417,0,2.493-0.389,3.228-1.169c0.735-0.779,1.103-1.919,1.103-3.417C28.72,36.006,28.354,34.867,27.624,34.092z M24.402,34.902
		c0.593,0,1.038,0.211,1.336,0.636c0.299,0.425,0.448,1.081,0.448,1.97c0,0.885-0.147,1.537-0.441,1.955S25,40.09,24.39,40.09
		c-1.197,0-1.796-0.86-1.796-2.582C22.594,35.771,23.197,34.902,24.402,34.902L24.402,34.902z"/>
	<path fill="#69A3BC" d="M35.352,35.072c0.329,0.105,0.658,0.236,0.987,0.391l0.737-1.895c-0.877-0.418-1.796-0.627-2.759-0.627
		c-0.881,0-1.647,0.188-2.299,0.563s-1.151,0.912-1.498,1.611c-0.347,0.697-0.521,1.508-0.521,2.43c0,1.475,0.358,2.601,1.075,3.38
		c0.716,0.78,1.747,1.169,3.09,1.169c0.938,0,1.778-0.164,2.521-0.493v-2.034c-0.374,0.154-0.745,0.286-1.114,0.396
		c-0.37,0.109-0.751,0.164-1.145,0.164c-1.303,0-1.955-0.857-1.955-2.57c0-0.824,0.161-1.471,0.481-1.939
		c0.321-0.469,0.768-0.703,1.34-0.703C34.669,34.914,35.023,34.967,35.352,35.072z"/>
	<path fill="#69A3BC" d="M43.269,37.058l2.807-3.989h-2.63l-1.87,2.729c-0.37,0.52-0.615,0.899-0.737,1.139v-3.867h-2.417v8.903
		h2.417v-2.978l0.713-0.426l1.76,3.403h2.716L43.269,37.058z"/>
	<path fill="#69A3BC" d="M52.274,40.012h-2.88v-1.681h2.667V36.4h-2.667v-1.401h2.88v-1.931h-5.285v8.903h5.285V40.012z"/>
	<path fill="#69A3BC" d="M60.225,34.166c-0.777-0.732-1.881-1.098-3.311-1.098h-3.08v8.903h2.88c1.482,0,2.631-0.401,3.45-1.206
		c0.818-0.803,1.227-1.948,1.227-3.435C61.391,35.951,61.002,34.896,60.225,34.166z M58.383,39.362
		c-0.341,0.425-0.877,0.637-1.607,0.637h-0.536v-4.987h0.7c0.657,0,1.147,0.197,1.47,0.59c0.323,0.395,0.485,0.999,0.485,1.816
		C58.895,38.29,58.724,38.938,58.383,39.362z"/>
</g>
<path fill-rule="evenodd" clip-rule="evenodd" fill="#69A3BC" d="M73.952,36.129v-0.631c0-0.699-0.594-1.268-1.318-1.268
	c-0.729,0-1.318,0.568-1.318,1.268v0.631h-1.276v-0.631c0-1.375,1.163-2.494,2.595-2.494c1.431,0,2.594,1.119,2.594,2.494v0.631
	H73.952z M69.879,36.488h5.539c0.441,0.043,0.785,0.402,0.785,0.838v3.625c0,0.467-0.393,0.845-0.878,0.845h-5.352
	c-0.485,0-0.878-0.378-0.878-0.845v-3.625C69.096,36.891,69.439,36.531,69.879,36.488z"/>
</svg>
