<?xml version="1.0" encoding="utf-8"?>

<!DOCTYPE svg PUBLIC "-//W3C//DTD SVG 1.1//EN" "http://www.w3.org/Graphics/SVG/1.1/DTD/svg11.dtd">
<svg version="1.1" id="Layer_1" xmlns="http://www.w3.org/2000/svg" xmlns:xlink="http://www.w3.org/1999/xlink" x="0px" y="0px"
	 width="96px" height="50px" viewBox="0 0 96 50" enable-background="new 0 0 96 50" xml:space="preserve">
<g>
	<path fill="#999999" d="M23.623,8.167h-2.11v3.962c0,0.535,0.028,1.245,0.084,2.128h-0.036l-3.189-6.09h-3.093v8.764h2.098v-3.95
		c0-0.512-0.038-1.253-0.114-2.224h0.054l3.201,6.174h3.104V8.167z"/>
	<path fill="#999999" d="M30.721,15h-2.835v-1.654h2.625v-1.9h-2.625v-1.379h2.835v-1.9h-5.203v8.764h5.203V15z"/>
	<path fill="#999999" d="M43.879,8.167h-2.284l-0.971,4.406c-0.231,1.095-0.374,1.864-0.425,2.308
		c-0.044-0.344-0.132-0.863-0.264-1.559c-0.132-0.695-0.262-1.309-0.39-1.84l-0.749-3.314h-2.194l-0.773,3.314
		c-0.116,0.46-0.241,1.04-0.375,1.738c-0.134,0.7-0.227,1.253-0.278,1.661c-0.08-0.575-0.228-1.349-0.444-2.32l-0.953-4.394h-2.284
		l2.17,8.764h2.799c0.512-2.298,0.803-3.609,0.873-3.932c0.07-0.324,0.141-0.679,0.212-1.064c0.072-0.385,0.125-0.708,0.156-0.968
		c0.04,0.32,0.103,0.717,0.188,1.193c0.086,0.476,0.149,0.793,0.189,0.953l0.839,3.818h2.799L43.879,8.167z"/>
	<path fill="#999999" d="M48.878,10.103h2.133V8.167h-6.641v1.936h2.14v6.828h2.368V10.103z"/>
	<path fill="#999999" d="M59.387,9.173c-0.719-0.763-1.777-1.145-3.172-1.145c-1.391,0-2.451,0.385-3.18,1.154
		c-0.729,0.769-1.094,1.883-1.094,3.342c0,1.475,0.367,2.598,1.1,3.369c0.734,0.771,1.787,1.157,3.162,1.157
		c1.395,0,2.455-0.384,3.178-1.151s1.086-1.889,1.086-3.363C60.467,11.058,60.107,9.937,59.387,9.173z M56.215,9.971
		c0.584,0,1.023,0.208,1.316,0.626c0.295,0.417,0.439,1.063,0.439,1.939c0,0.871-0.145,1.512-0.434,1.924
		c-0.291,0.411-0.734,0.617-1.334,0.617c-1.178,0-1.768-0.847-1.768-2.542C54.436,10.826,55.029,9.971,56.215,9.971L56.215,9.971z"
		/>
	<path fill="#999999" d="M67.576,8.892c-0.557-0.483-1.389-0.725-2.496-0.725h-3.031v8.764h2.367v-2.907h0.664
		c1.064,0,1.885-0.267,2.463-0.801c0.578-0.533,0.865-1.29,0.865-2.269C68.408,10.063,68.131,9.375,67.576,8.892z M64.416,10.079
		h0.611c0.656,0,0.984,0.295,0.984,0.887c0,0.352-0.105,0.627-0.314,0.827c-0.211,0.2-0.494,0.3-0.85,0.3h-0.432V10.079z"/>
	<path fill="#999999" d="M72.186,16.93V8.167h-2.381v8.764H72.186z"/>
	<path fill="#999999" d="M79.025,10.138c0.322,0.104,0.646,0.232,0.971,0.384l0.725-1.864c-0.863-0.412-1.768-0.617-2.715-0.617
		c-0.867,0-1.621,0.185-2.262,0.555c-0.643,0.37-1.135,0.897-1.477,1.585c-0.34,0.687-0.512,1.484-0.512,2.392
		c0,1.451,0.354,2.56,1.057,3.327c0.707,0.767,1.721,1.151,3.043,1.151c0.924,0,1.75-0.162,2.482-0.485v-2.002
		c-0.367,0.152-0.734,0.282-1.098,0.39s-0.74,0.162-1.127,0.162c-1.281,0-1.924-0.843-1.924-2.53c0-0.812,0.158-1.448,0.473-1.91
		c0.316-0.461,0.756-0.692,1.32-0.692C78.354,9.982,78.701,10.035,79.025,10.138z"/>
</g>
<g>
	<path fill="#69A3BC" d="M23.623,32.986h-2.11v3.963c0,0.535,0.028,1.244,0.084,2.127h-0.036l-3.189-6.09h-3.093v8.764h2.098V37.8
		c0-0.512-0.038-1.253-0.114-2.224h0.054l3.201,6.174h3.104V32.986z"/>
	<path fill="#69A3BC" d="M30.721,39.82h-2.835v-1.654h2.625v-1.9h-2.625v-1.379h2.835v-1.9h-5.203v8.764h5.203V39.82z"/>
	<path fill="#69A3BC" d="M43.879,32.986h-2.284l-0.971,4.406c-0.231,1.094-0.374,1.863-0.425,2.307
		c-0.044-0.344-0.132-0.862-0.264-1.559c-0.132-0.694-0.262-1.309-0.39-1.84l-0.749-3.314h-2.194l-0.773,3.314
		c-0.116,0.46-0.241,1.039-0.375,1.738c-0.134,0.699-0.227,1.253-0.278,1.66c-0.08-0.574-0.228-1.348-0.444-2.319l-0.953-4.394
		h-2.284l2.17,8.764h2.799c0.512-2.298,0.803-3.609,0.873-3.932c0.07-0.324,0.141-0.68,0.212-1.064
		c0.072-0.386,0.125-0.709,0.156-0.969c0.04,0.32,0.103,0.718,0.188,1.193c0.086,0.476,0.149,0.793,0.189,0.953l0.839,3.818h2.799
		L43.879,32.986z"/>
	<path fill="#69A3BC" d="M48.878,34.922h2.133v-1.936h-6.641v1.936h2.14v6.828h2.368V34.922z"/>
	<path fill="#69A3BC" d="M59.387,33.993c-0.719-0.763-1.777-1.146-3.172-1.146c-1.391,0-2.451,0.385-3.18,1.154
		s-1.094,1.883-1.094,3.342c0,1.475,0.367,2.598,1.1,3.369c0.734,0.771,1.787,1.157,3.162,1.157c1.395,0,2.455-0.384,3.178-1.151
		c0.723-0.767,1.086-1.889,1.086-3.362C60.467,35.877,60.107,34.757,59.387,33.993z M56.215,34.791c0.584,0,1.023,0.208,1.316,0.626
		c0.295,0.417,0.439,1.063,0.439,1.939c0,0.871-0.145,1.513-0.434,1.925c-0.291,0.41-0.734,0.617-1.334,0.617
		c-1.178,0-1.768-0.848-1.768-2.542C54.436,35.646,55.029,34.791,56.215,34.791L56.215,34.791z"/>
	<path fill="#69A3BC" d="M67.576,33.711c-0.557-0.482-1.389-0.725-2.496-0.725h-3.031v8.764h2.367v-2.907h0.664
		c1.064,0,1.885-0.267,2.463-0.801c0.578-0.533,0.865-1.29,0.865-2.269C68.408,34.883,68.131,34.195,67.576,33.711z M64.416,34.898
		h0.611c0.656,0,0.984,0.295,0.984,0.887c0,0.352-0.105,0.628-0.314,0.828c-0.211,0.199-0.494,0.299-0.85,0.299h-0.432V34.898z"/>
	<path fill="#69A3BC" d="M72.186,41.75v-8.764h-2.381v8.764H72.186z"/>
	<path fill="#69A3BC" d="M79.025,34.958c0.322,0.104,0.646,0.231,0.971,0.384l0.725-1.864c-0.863-0.411-1.768-0.617-2.715-0.617
		c-0.867,0-1.621,0.185-2.262,0.555c-0.643,0.37-1.135,0.897-1.477,1.585c-0.34,0.688-0.512,1.484-0.512,2.393
		c0,1.45,0.354,2.56,1.057,3.326c0.707,0.768,1.721,1.151,3.043,1.151c0.924,0,1.75-0.162,2.482-0.485v-2.002
		c-0.367,0.151-0.734,0.281-1.098,0.389c-0.363,0.108-0.74,0.162-1.127,0.162c-1.281,0-1.924-0.843-1.924-2.529
		c0-0.812,0.158-1.448,0.473-1.91c0.316-0.461,0.756-0.691,1.32-0.691C78.354,34.803,78.701,34.854,79.025,34.958z"/>
</g>
</svg>
