<?xml version="1.0" encoding="utf-8"?>

<!DOCTYPE svg PUBLIC "-//W3C//DTD SVG 1.1//EN" "http://www.w3.org/Graphics/SVG/1.1/DTD/svg11.dtd">
<svg version="1.1" id="Layer_1" xmlns="http://www.w3.org/2000/svg" xmlns:xlink="http://www.w3.org/1999/xlink" x="0px" y="0px"
	 width="27px" height="27px" viewBox="0 0 27 27" enable-background="new 0 0 27 27" xml:space="preserve">
<g>
	<g>
		<path fill="#D8D8D8" d="M13.5,1C6.596,1,1,6.596,1,13.5C1,20.402,6.596,26,13.5,26C20.402,26,26,20.402,26,13.5
			C26,6.596,20.402,1,13.5,1z M13.5,23C8.254,23,4,18.747,4,13.5S8.254,4,13.5,4c5.247,0,9.5,4.253,9.5,9.5S18.747,23,13.5,23z"/>
	</g>
</g>
<path fill-rule="evenodd" clip-rule="evenodd" fill="#BC6969" d="M15.149,11.357v-0.859c0-0.954-0.749-1.73-1.669-1.73
	c-0.922,0-1.67,0.776-1.67,1.73v0.859h-1.616v-0.859c0-1.878,1.474-3.404,3.286-3.404c1.812,0,3.285,1.526,3.285,3.404v0.859H15.149
	z M9.992,11.847h7.015C17.565,11.91,18,12.398,18,12.993v4.949c0,0.637-0.497,1.152-1.111,1.152h-6.777
	C9.497,19.094,9,18.578,9,17.941v-4.949C9,12.398,9.435,11.91,9.992,11.847z M12.719,17.424c-0.006,0.027,0.001,0.053,0.018,0.074
	c0.016,0.02,0.039,0.033,0.064,0.033l1.371,0.008c0.001,0,0.001,0,0.001,0c0.047,0,0.085-0.039,0.085-0.088
	c0-0.008-0.001-0.016-0.003-0.023l-0.368-1.84c0.33-0.156,0.547-0.5,0.547-0.881c0-0.533-0.419-0.966-0.934-0.966
	c-0.516,0-0.934,0.433-0.934,0.966c0,0.371,0.201,0.705,0.518,0.867L12.719,17.424z"/>
</svg>
