<?xml version="1.0" encoding="utf-8"?>

<!DOCTYPE svg PUBLIC "-//W3C//DTD SVG 1.1//EN" "http://www.w3.org/Graphics/SVG/1.1/DTD/svg11.dtd">
<svg version="1.1" id="Layer_1" xmlns="http://www.w3.org/2000/svg" xmlns:xlink="http://www.w3.org/1999/xlink" x="0px" y="0px"
	 width="27px" height="27px" viewBox="0 0 27 27" enable-background="new 0 0 27 27" xml:space="preserve">
<g>
	<g>
		<path fill="#D8D8D8" d="M13.5,1C6.596,1,1,6.596,1,13.5C1,20.402,6.596,26,13.5,26C20.402,26,26,20.402,26,13.5
			C26,6.596,20.402,1,13.5,1z M13.5,23C8.254,23,4,18.747,4,13.5S8.254,4,13.5,4c5.247,0,9.5,4.253,9.5,9.5S18.747,23,13.5,23z"/>
	</g>
</g>
<path fill-rule="evenodd" clip-rule="evenodd" fill="#69A3BC" d="M12.382,6.841l-2.057,2.042l4.18,4.21l-4.18,4.209l2.057,2.043
	l6.209-6.252L12.382,6.841z"/>
</svg>
