<?xml version="1.0" encoding="utf-8"?>

<!DOCTYPE svg PUBLIC "-//W3C//DTD SVG 1.1//EN" "http://www.w3.org/Graphics/SVG/1.1/DTD/svg11.dtd">
<svg version="1.1" id="Layer_1" xmlns="http://www.w3.org/2000/svg" xmlns:xlink="http://www.w3.org/1999/xlink" x="0px" y="0px"
	 width="20px" height="40px" viewBox="0 0 20 40" enable-background="new 0 0 20 40" xml:space="preserve">
<g>
	<path fill-rule="evenodd" clip-rule="evenodd" fill="#97B2DD" d="M12.713,14.432c-1.068,0.972-2.395,1.541-3.966,1.708H6.735
		c-1.583-0.167-2.907-0.735-3.958-1.708c-1.289-1.172-1.933-2.702-1.933-4.588c0-1.861,0.645-3.365,1.933-4.537
		c1.268-1.198,2.931-1.784,4.968-1.784c2.017,0,3.679,0.586,4.968,1.784c1.268,1.172,1.912,2.676,1.912,4.537
		C14.625,11.729,13.98,13.259,12.713,14.432L12.713,14.432z"/>
	<polygon fill-rule="evenodd" clip-rule="evenodd" fill="#97B2DD" points="17.285,15.935 15.416,15.655 15.623,13.642 
		17.494,13.921 17.285,15.935 	"/>
	<polygon fill-rule="evenodd" clip-rule="evenodd" fill="#97B2DD" points="19.156,3.726 15.955,3.242 15.977,12.342 17.369,12.571 
		19.156,3.726 	"/>
	<path fill-rule="evenodd" clip-rule="evenodd" fill="#FFFFFF" d="M11.758,8.288l-0.977,0.255c-0.146,0.051-0.542,0.407-1.228,1.096
		c-0.728,0.713-1.102,1.172-1.164,1.402l-0.042,0.636l-0.021,0.383L8.41,13.03l1.289,0.025l-0.021,0.484h-2.1l-1.871,0.026
		l0.063-0.459l0.603-0.025c0.312-0.025,0.499-0.076,0.561-0.153c0.042-0.051,0.063-0.356,0.063-0.892v-0.331l-0.021-0.663
		c-0.042-0.153-0.374-0.714-1.018-1.683c-0.666-0.994-1.102-1.581-1.31-1.785L3.442,7.371V6.938C3.505,6.886,4.17,6.886,5.396,6.912
		c0.852-0.026,1.559-0.026,2.121,0.025L7.475,7.295L6.207,7.447c0.395,0.714,0.998,1.708,1.809,2.957
		c1.06-0.995,1.621-1.631,1.642-1.912l-1.08-0.204L8.493,7.83h1.809l1.704,0.025L11.758,8.288L11.758,8.288z"/>
</g>
<g>
	<path fill-rule="evenodd" clip-rule="evenodd" fill="#8A2A8F" d="M12.713,34.307c-1.068,0.973-2.395,1.541-3.966,1.707H6.735
		c-1.583-0.166-2.907-0.734-3.958-1.707c-1.289-1.172-1.933-2.702-1.933-4.588c0-1.861,0.645-3.365,1.933-4.537
		c1.268-1.198,2.931-1.784,4.968-1.784c2.017,0,3.679,0.586,4.968,1.784c1.268,1.172,1.912,2.676,1.912,4.537
		C14.625,31.604,13.98,33.135,12.713,34.307L12.713,34.307z"/>
	<polygon fill-rule="evenodd" clip-rule="evenodd" fill="#8A2A8F" points="17.285,35.81 15.416,35.529 15.623,33.517 17.494,33.797 
		17.285,35.81 	"/>
	<polygon fill-rule="evenodd" clip-rule="evenodd" fill="#8A2A8F" points="19.156,23.602 15.955,23.117 15.977,32.217 
		17.369,32.445 19.156,23.602 	"/>
	<path fill-rule="evenodd" clip-rule="evenodd" fill="#FFFFFF" d="M11.758,28.163l-0.977,0.255
		c-0.146,0.051-0.542,0.408-1.228,1.097c-0.728,0.714-1.102,1.173-1.164,1.402l-0.042,0.636l-0.021,0.383l0.083,0.969l1.289,0.025
		l-0.021,0.484h-2.1l-1.871,0.025l0.063-0.459l0.603-0.025c0.312-0.025,0.499-0.076,0.561-0.152
		c0.042-0.051,0.063-0.357,0.063-0.893v-0.33l-0.021-0.663c-0.042-0.153-0.374-0.714-1.018-1.683
		c-0.666-0.994-1.102-1.581-1.31-1.785l-1.206-0.203v-0.434c0.063-0.051,0.728-0.051,1.954-0.025
		c0.852-0.025,1.559-0.025,2.121,0.025L7.475,27.17l-1.268,0.152c0.395,0.715,0.998,1.708,1.809,2.957
		c1.06-0.994,1.621-1.631,1.642-1.912l-1.08-0.204l-0.084-0.458h1.809l1.704,0.025L11.758,28.163L11.758,28.163z"/>
</g>
</svg>
