<?xml version="1.0" encoding="utf-8"?>

<!DOCTYPE svg PUBLIC "-//W3C//DTD SVG 1.1//EN" "http://www.w3.org/Graphics/SVG/1.1/DTD/svg11.dtd">
<svg version="1.1" id="Layer_1" xmlns="http://www.w3.org/2000/svg" xmlns:xlink="http://www.w3.org/1999/xlink" x="0px" y="0px"
	 width="42px" height="40px" viewBox="0 0 42 40" enable-background="new 0 0 42 40" xml:space="preserve">
<g>
	<path fill="#999999" d="M10.139,7.878C9.574,7.277,8.744,6.976,7.648,6.976c-1.092,0-1.925,0.304-2.498,0.909
		C4.576,8.492,4.291,9.37,4.291,10.519c0,1.163,0.289,2.047,0.865,2.655c0.576,0.608,1.403,0.912,2.483,0.912l0.005,0.005v0.004
		l0.005,0.004l1.216,1.536h2.316l-1.681-1.941c0.992-0.545,1.488-1.6,1.488-3.166C10.987,9.363,10.704,8.479,10.139,7.878z
		 M7.648,8.507C8.106,8.507,8.451,8.67,8.682,9c0.23,0.33,0.346,0.839,0.346,1.528c0,0.687-0.114,1.193-0.342,1.517
		c-0.227,0.324-0.577,0.486-1.048,0.486c-0.926,0-1.389-0.667-1.389-2.003C6.25,9.181,6.715,8.507,7.648,8.507L7.648,8.507z"/>
	<path fill="#999999" d="M16.223,7.085v4.042c0,0.499-0.085,0.856-0.257,1.076c-0.171,0.218-0.446,0.328-0.826,0.328
		c-0.354,0-0.623-0.11-0.805-0.33c-0.182-0.221-0.273-0.575-0.273-1.063V7.085h-1.87v4.199c0,0.903,0.251,1.597,0.756,2.078
		c0.503,0.482,1.225,0.723,2.164,0.723c0.96,0,1.697-0.249,2.206-0.744c0.51-0.496,0.766-1.196,0.766-2.1V7.085H16.223z"/>
	<path fill="#999999" d="M25.123,7.878c-0.564-0.601-1.395-0.902-2.49-0.902c-1.093,0-1.926,0.304-2.499,0.909
		c-0.573,0.607-0.858,1.484-0.858,2.633c0,1.163,0.288,2.047,0.863,2.655c0.576,0.608,1.404,0.912,2.483,0.912
		c1.097,0,1.929-0.302,2.496-0.907c0.57-0.605,0.853-1.488,0.853-2.651C25.971,9.363,25.689,8.479,25.123,7.878z M22.633,8.507
		c0.458,0,0.802,0.164,1.032,0.493c0.232,0.33,0.348,0.839,0.348,1.528c0,0.687-0.114,1.193-0.343,1.517
		c-0.228,0.324-0.576,0.486-1.048,0.486c-0.925,0-1.388-0.667-1.388-2.003C21.234,9.181,21.701,8.507,22.633,8.507L22.633,8.507z"/>
	<path fill="#999999" d="M30.252,8.611h1.676V7.085h-5.216v1.526h1.681v5.38h1.859V8.611z"/>
	<path fill="#999999" d="M37,12.47h-2.228v-1.304h2.062V9.668h-2.062V8.582H37V7.085h-4.087v6.906H37V12.47z"/>
</g>
<g>
	<path fill="#69A3BC" d="M10.139,27.754c-0.565-0.602-1.396-0.902-2.491-0.902c-1.092,0-1.925,0.304-2.498,0.909
		c-0.574,0.606-0.859,1.484-0.859,2.634c0,1.162,0.289,2.047,0.865,2.654c0.576,0.607,1.403,0.912,2.483,0.912l0.005,0.005v0.005
		l0.005,0.004l1.216,1.535h2.316l-1.681-1.941c0.992-0.545,1.488-1.6,1.488-3.165C10.987,29.238,10.704,28.355,10.139,27.754z
		 M7.648,28.383c0.458,0,0.803,0.163,1.034,0.492c0.23,0.33,0.346,0.84,0.346,1.528c0,0.687-0.114,1.192-0.342,1.517
		c-0.227,0.324-0.577,0.486-1.048,0.486c-0.926,0-1.389-0.667-1.389-2.003C6.25,29.057,6.715,28.383,7.648,28.383L7.648,28.383z"/>
	<path fill="#69A3BC" d="M16.223,26.961v4.042c0,0.499-0.085,0.856-0.257,1.075c-0.171,0.219-0.446,0.328-0.826,0.328
		c-0.354,0-0.623-0.11-0.805-0.33c-0.182-0.221-0.273-0.574-0.273-1.063v-4.053h-1.87v4.199c0,0.902,0.251,1.596,0.756,2.078
		c0.503,0.482,1.225,0.723,2.164,0.723c0.96,0,1.697-0.248,2.206-0.744c0.51-0.496,0.766-1.195,0.766-2.1v-4.156H16.223z"/>
	<path fill="#69A3BC" d="M25.123,27.754c-0.564-0.602-1.395-0.902-2.49-0.902c-1.093,0-1.926,0.304-2.499,0.909
		c-0.573,0.606-0.858,1.484-0.858,2.634c0,1.162,0.288,2.047,0.863,2.654s1.404,0.912,2.483,0.912c1.097,0,1.929-0.303,2.496-0.906
		c0.57-0.605,0.853-1.488,0.853-2.651C25.971,29.238,25.689,28.355,25.123,27.754z M22.633,28.383c0.458,0,0.802,0.163,1.032,0.492
		c0.232,0.33,0.348,0.84,0.348,1.528c0,0.687-0.114,1.192-0.343,1.517c-0.228,0.324-0.576,0.486-1.048,0.486
		c-0.925,0-1.388-0.667-1.388-2.003C21.234,29.057,21.701,28.383,22.633,28.383L22.633,28.383z"/>
	<path fill="#69A3BC" d="M30.252,28.486h1.676v-1.525h-5.216v1.525h1.681v5.38h1.859V28.486z"/>
	<path fill="#69A3BC" d="M37,32.346h-2.228v-1.305h2.062v-1.497h-2.062v-1.087H37v-1.496h-4.087v6.905H37V32.346z"/>
</g>
</svg>
