<?xml version="1.0" encoding="utf-8"?>

<!DOCTYPE svg PUBLIC "-//W3C//DTD SVG 1.1//EN" "http://www.w3.org/Graphics/SVG/1.1/DTD/svg11.dtd">
<svg version="1.1" id="Layer_1" xmlns="http://www.w3.org/2000/svg" xmlns:xlink="http://www.w3.org/1999/xlink" x="0px" y="0px"
	 width="28px" height="40px" viewBox="0 0 28 40" enable-background="new 0 0 28 40" xml:space="preserve">
<rect x="6.5" y="3" fill="#98B3DD" width="17" height="13"/>
<rect x="6.5" y="23" fill="#F6D591" width="17" height="13"/>
<g>
	<path fill="#FFFFFF" d="M12.882,7.323C12.511,7,11.956,6.838,11.217,6.838H9.191v5.852h1.581v-1.941h0.444
		c0.71,0,1.257-0.178,1.644-0.534c0.385-0.357,0.578-0.861,0.578-1.515C13.438,8.104,13.252,7.646,12.882,7.323z M10.772,8.115
		h0.409c0.438,0,0.656,0.197,0.656,0.593c0,0.234-0.07,0.419-0.21,0.552c-0.14,0.134-0.329,0.201-0.567,0.201h-0.288V8.115z"/>
	<path fill="#FFFFFF" d="M18.426,12.69l1.18-4.207h0.037c-0.032,0.635-0.051,1.034-0.054,1.197
		c-0.005,0.162-0.007,0.311-0.007,0.444v2.565h1.453V6.838h-2.109l-1.196,4.154h-0.033l-1.22-4.154h-2.105v5.852h1.399v-2.542
		c0-0.397-0.026-0.955-0.084-1.672h0.037l1.196,4.214H18.426z"/>
</g>
<g>
	<path fill="#FFFFFF" d="M12.882,27.445c-0.371-0.322-0.926-0.484-1.665-0.484H9.191v5.852h1.581v-1.941h0.444
		c0.71,0,1.257-0.178,1.644-0.533c0.385-0.357,0.578-0.861,0.578-1.516C13.438,28.228,13.252,27.77,12.882,27.445z M10.772,28.238
		h0.409c0.438,0,0.656,0.197,0.656,0.592c0,0.234-0.07,0.42-0.21,0.553c-0.14,0.134-0.329,0.201-0.567,0.201h-0.288V28.238z"/>
	<path fill="#FFFFFF" d="M18.426,32.813l1.18-4.206h0.037c-0.032,0.636-0.051,1.034-0.054,1.197
		c-0.005,0.162-0.007,0.311-0.007,0.444v2.564h1.453v-5.852h-2.109l-1.196,4.154h-0.033l-1.22-4.154h-2.105v5.852h1.399v-2.541
		c0-0.397-0.026-0.955-0.084-1.673h0.037l1.196,4.214H18.426z"/>
</g>
</svg>
