<?xml version="1.0" encoding="utf-8"?>

<!DOCTYPE svg PUBLIC "-//W3C//DTD SVG 1.1//EN" "http://www.w3.org/Graphics/SVG/1.1/DTD/svg11.dtd">
<svg version="1.1" id="Layer_1" xmlns="http://www.w3.org/2000/svg" xmlns:xlink="http://www.w3.org/1999/xlink" x="0px" y="0px"
	 width="20px" height="40px" viewBox="0 0 20 40" enable-background="new 0 0 20 40" xml:space="preserve">
<g>
	<path fill="#454545" d="M8.044,22.995c-0.446-0.102-0.81-0.061-1.195,0.142c-0.426,0.264-0.668,0.669-0.77,1.235
		c-0.101,0.589,0,1.155,0.304,1.723l0.142,0.202l-0.486-0.162c-0.608-0.142-1.175-0.061-1.742,0.244
		c-0.587,0.303-0.952,0.729-1.196,1.315c-0.223,0.568-0.202,1.114,0.081,1.621c0.122,0.222,0.304,0.404,0.466,0.526
		c0.243,0.243,0.547,0.385,0.911,0.445l0.142,0.04l-0.304,0.264c-0.284,0.243-0.446,0.547-0.547,0.851
		c-0.102,0.364-0.062,0.729,0.142,1.074c0.102,0.161,0.202,0.304,0.364,0.404c0.162,0.142,0.365,0.244,0.608,0.264
		c0.446,0.102,0.911,0.102,1.417-0.061L6.018,33.73l-0.101,0.263c-0.202,0.648-0.142,1.216,0.162,1.804
		c0.142,0.223,0.304,0.425,0.466,0.607c0.243,0.223,0.546,0.364,0.911,0.466c0.607,0.162,1.215,0.142,1.802-0.163
		c0.567-0.303,0.933-0.789,1.115-1.397l0.02-0.121c0.385,0.426,0.75,0.709,1.154,0.811c0.405,0.121,0.812,0.101,1.176-0.143
		c0.344-0.202,0.589-0.547,0.708-0.972c0.104-0.446,0.104-0.892,0-1.397c0.204,0.142,0.405,0.242,0.649,0.303
		c0.647,0.203,1.216,0.183,1.782-0.121c0.548-0.304,0.912-0.79,1.095-1.417c0.161-0.607,0.121-1.195-0.183-1.763l-0.102-0.162
		c-0.162-0.243-0.324-0.486-0.567-0.648c-0.202-0.142-0.445-0.243-0.668-0.344c0.628-0.305,1.073-0.729,1.275-1.276
		c0.143-0.445,0.103-0.81-0.102-1.176v-0.039c-0.242-0.405-0.566-0.669-1.072-0.811c-0.304-0.061-0.648-0.061-0.953-0.04
		l-0.667,0.141l0.222-0.506c0.203-0.647,0.143-1.275-0.201-1.863l-0.062-0.102c-0.305-0.507-0.749-0.81-1.357-0.972
		c-0.628-0.163-1.216-0.102-1.782,0.202c-0.567,0.304-0.972,0.77-1.154,1.377v0.041l-0.02,0.143l-0.081-0.143L9.28,23.947
		C8.956,23.441,8.551,23.137,8.044,22.995L8.044,22.995z M13.209,24.211c0.103,0.202,0.162,0.445,0.162,0.709l-0.06,0.446
		c-0.082,0.222-0.183,0.424-0.305,0.606l-1.823,2.229c-0.183-0.142-0.385-0.243-0.587-0.344l-0.203-2.289l-0.02-0.811l0.02-0.202
		c0.102-0.405,0.385-0.709,0.75-0.912c0.364-0.202,0.77-0.243,1.154-0.101C12.724,23.644,13.027,23.867,13.209,24.211L13.209,24.211
		z M6.93,24.616c0.02-0.365,0.162-0.608,0.405-0.749c0.122-0.103,0.304-0.103,0.466-0.021c0.364,0.102,0.668,0.364,0.911,0.871
		c0.102,0.202,0.203,0.405,0.243,0.648l0.405,2.39l-0.304,0.102l-1.803-1.966l-0.102-0.202C6.991,25.325,6.89,24.981,6.93,24.616
		L6.93,24.616L6.93,24.616z M5.836,26.986l0.547,0.223l1.783,1.297c-0.163,0.201-0.263,0.404-0.324,0.607l-2.917,0.364l-0.203-0.041
		c-0.365-0.061-0.608-0.223-0.77-0.526c-0.162-0.304-0.162-0.607-0.04-0.911c0.141-0.385,0.405-0.689,0.79-0.852
		C5.066,26.945,5.431,26.884,5.836,26.986L5.836,26.986L5.836,26.986z M7.76,30.287l0.142,0.405l0.061,0.142
		c-0.304,0.264-0.527,0.507-0.77,0.729l-0.607,0.506l-0.162,0.102c-0.385,0.183-0.709,0.244-1.054,0.203
		c-0.304-0.021-0.547-0.122-0.648-0.305l-0.061-0.222l0.04-0.184c0.101-0.303,0.365-0.607,0.831-0.83
		c0.243-0.101,0.445-0.202,0.607-0.243L7.76,30.287L7.76,30.287z M14.08,27.007c0.365-0.163,0.71-0.203,1.074-0.163
		c0.344,0.04,0.587,0.202,0.708,0.445l0.08,0.264l-0.039,0.203c-0.143,0.364-0.446,0.647-0.953,0.871
		c-0.201,0.101-0.424,0.142-0.667,0.182l-2.491,0.304l-0.041-0.142l-0.041-0.062l0.082-0.101l2.045-1.701L14.08,27.007L14.08,27.007
		z M8.915,28.931c0.243-0.224,0.567-0.365,0.952-0.365c0.365,0,0.709,0.143,0.932,0.365c0.284,0.283,0.405,0.588,0.405,0.952
		s-0.121,0.708-0.405,0.951c-0.263,0.264-0.567,0.405-0.932,0.405c-0.385,0-0.709-0.142-0.952-0.405
		c-0.263-0.243-0.404-0.587-0.404-0.951S8.652,29.214,8.915,28.931L8.915,28.931z M9.381,31.867c0.04,0.688,0.101,1.419,0.202,2.208
		v0.811l-0.02,0.202c-0.142,0.364-0.385,0.669-0.75,0.831c-0.365,0.202-0.75,0.243-1.114,0.142
		c-0.405-0.102-0.708-0.345-0.871-0.668c-0.101-0.202-0.182-0.446-0.182-0.689l0.101-0.466c0.041-0.202,0.142-0.405,0.304-0.566
		l1.702-2.025C8.956,31.746,9.158,31.848,9.381,31.867L9.381,31.867z M10.941,31.604l0.851,0.87l0.525,0.648l0.103,0.202
		c0.182,0.346,0.282,0.669,0.242,1.055c-0.04,0.364-0.161,0.627-0.405,0.729c-0.142,0.101-0.304,0.101-0.465,0.08
		c-0.385-0.101-0.688-0.404-0.912-0.89l-0.243-0.669l-0.304-1.763l0.345-0.121L10.941,31.604L10.941,31.604z M11.852,30.349
		l2.289-0.202l0.81-0.021l0.204,0.021c0.305,0.101,0.587,0.282,0.749,0.587c0.202,0.223,0.303,0.526,0.303,0.871l-0.06,0.404
		c-0.101,0.406-0.345,0.709-0.689,0.871c-0.364,0.202-0.729,0.243-1.135,0.102c-0.242-0.062-0.403-0.162-0.546-0.323l-2.126-1.763
		l0.142-0.304L11.852,30.349L11.852,30.349L11.852,30.349z"/>
	<path fill="#73BF44" d="M13.209,24.211c0.103,0.202,0.162,0.445,0.162,0.709l-0.06,0.446c-0.082,0.222-0.183,0.424-0.305,0.606
		l-1.823,2.229c-0.183-0.142-0.385-0.243-0.587-0.344l-0.203-2.289l-0.02-0.811l0.02-0.202c0.102-0.405,0.385-0.709,0.75-0.912
		c0.364-0.202,0.77-0.243,1.154-0.101C12.724,23.644,13.027,23.867,13.209,24.211L13.209,24.211z M6.93,24.616
		c0.02-0.365,0.162-0.608,0.405-0.749c0.122-0.103,0.304-0.103,0.466-0.021c0.364,0.102,0.668,0.364,0.911,0.871
		c0.102,0.202,0.203,0.405,0.243,0.648l0.405,2.39l-0.304,0.102l-1.803-1.966l-0.102-0.202C6.991,25.325,6.89,24.981,6.93,24.616
		L6.93,24.616L6.93,24.616z M5.836,26.986l0.547,0.223l1.783,1.297c-0.163,0.201-0.263,0.404-0.324,0.607l-2.917,0.364l-0.203-0.041
		c-0.365-0.061-0.608-0.223-0.77-0.526c-0.162-0.304-0.162-0.607-0.04-0.911c0.141-0.385,0.405-0.689,0.79-0.852
		C5.066,26.945,5.431,26.884,5.836,26.986L5.836,26.986L5.836,26.986z M14.08,27.007c0.365-0.163,0.71-0.203,1.074-0.163
		c0.344,0.04,0.587,0.202,0.708,0.445l0.08,0.264l-0.039,0.203c-0.143,0.364-0.446,0.647-0.953,0.871
		c-0.201,0.101-0.424,0.142-0.667,0.182l-2.491,0.304l-0.041-0.142l-0.041-0.062l0.082-0.101l2.045-1.701L14.08,27.007L14.08,27.007
		z M9.381,31.867c0.04,0.688,0.101,1.419,0.202,2.208v0.811l-0.02,0.202c-0.142,0.364-0.385,0.669-0.75,0.831
		c-0.365,0.202-0.75,0.243-1.114,0.142c-0.405-0.102-0.708-0.345-0.871-0.668c-0.101-0.202-0.182-0.446-0.182-0.689l0.101-0.466
		c0.041-0.202,0.142-0.405,0.304-0.566l1.702-2.025C8.956,31.746,9.158,31.848,9.381,31.867L9.381,31.867z M10.941,31.604
		l0.851,0.87l0.525,0.648l0.103,0.202c0.182,0.346,0.282,0.669,0.242,1.055c-0.04,0.364-0.161,0.627-0.405,0.729
		c-0.142,0.101-0.304,0.101-0.465,0.08c-0.385-0.101-0.688-0.404-0.912-0.89l-0.243-0.669l-0.304-1.763l0.345-0.121L10.941,31.604
		L10.941,31.604z M11.852,30.349l2.289-0.202l0.81-0.021l0.204,0.021c0.305,0.101,0.587,0.282,0.749,0.587
		c0.202,0.223,0.303,0.526,0.303,0.871l-0.06,0.404c-0.101,0.406-0.345,0.709-0.689,0.871c-0.364,0.202-0.729,0.243-1.135,0.102
		c-0.242-0.062-0.403-0.162-0.546-0.323l-2.126-1.763l0.142-0.304L11.852,30.349L11.852,30.349z"/>
	<path fill="#ED2029" d="M7.76,30.287l0.142,0.405l0.061,0.142c-0.304,0.264-0.527,0.507-0.77,0.729l-0.607,0.506l-0.162,0.102
		c-0.385,0.183-0.709,0.244-1.054,0.203c-0.304-0.021-0.547-0.122-0.648-0.305l-0.061-0.222l0.04-0.184
		c0.101-0.303,0.365-0.607,0.831-0.83c0.243-0.101,0.445-0.202,0.607-0.243L7.76,30.287L7.76,30.287z"/>
	<path fill="#F6EC29" d="M8.915,28.931c0.243-0.224,0.567-0.365,0.952-0.365c0.365,0,0.709,0.143,0.932,0.365
		c0.284,0.283,0.405,0.588,0.405,0.952s-0.121,0.708-0.405,0.951c-0.263,0.264-0.567,0.405-0.932,0.405
		c-0.385,0-0.709-0.142-0.952-0.405c-0.263-0.243-0.404-0.587-0.404-0.951S8.652,29.214,8.915,28.931L8.915,28.931z"/>
</g>
<g>
	<path fill="#98B2DD" d="M8.06,2.566C7.614,2.465,7.25,2.506,6.865,2.708c-0.426,0.264-0.668,0.669-0.77,1.235
		c-0.101,0.589,0,1.155,0.304,1.723l0.142,0.202L6.054,5.706C5.446,5.564,4.879,5.646,4.313,5.95
		C3.725,6.253,3.36,6.679,3.117,7.266C2.894,7.834,2.915,8.38,3.198,8.887c0.122,0.222,0.304,0.404,0.466,0.526
		c0.243,0.243,0.547,0.385,0.911,0.445l0.142,0.04l-0.304,0.264c-0.284,0.243-0.446,0.547-0.547,0.851
		c-0.102,0.364-0.062,0.729,0.142,1.074c0.102,0.161,0.202,0.304,0.364,0.404c0.162,0.142,0.365,0.244,0.608,0.264
		c0.446,0.102,0.911,0.102,1.417-0.061l-0.365,0.607l-0.101,0.263c-0.202,0.648-0.142,1.216,0.162,1.804
		c0.142,0.223,0.304,0.425,0.466,0.607c0.243,0.223,0.546,0.364,0.911,0.466c0.607,0.162,1.215,0.142,1.802-0.163
		c0.567-0.303,0.933-0.789,1.115-1.397l0.02-0.121c0.385,0.426,0.75,0.709,1.154,0.811c0.404,0.121,0.811,0.101,1.176-0.143
		c0.344-0.202,0.588-0.547,0.707-0.972c0.104-0.446,0.104-0.892,0-1.397c0.205,0.142,0.406,0.242,0.65,0.303
		c0.646,0.203,1.215,0.183,1.781-0.121c0.549-0.304,0.912-0.79,1.096-1.417c0.16-0.607,0.121-1.195-0.184-1.763l-0.102-0.162
		c-0.162-0.243-0.324-0.486-0.566-0.648c-0.203-0.142-0.445-0.243-0.668-0.344c0.627-0.305,1.072-0.729,1.275-1.276
		c0.143-0.445,0.102-0.81-0.102-1.176V6.415c-0.242-0.405-0.566-0.669-1.072-0.811c-0.305-0.061-0.648-0.061-0.953-0.04
		l-0.668,0.141l0.223-0.506c0.203-0.647,0.143-1.275-0.201-1.863l-0.063-0.102c-0.305-0.507-0.748-0.81-1.357-0.972
		C11.908,2.1,11.32,2.161,10.753,2.465s-0.972,0.77-1.154,1.377v0.041l-0.02,0.143L9.498,3.883L9.295,3.519
		C8.971,3.013,8.566,2.708,8.06,2.566L8.06,2.566z M13.225,3.782c0.102,0.202,0.162,0.445,0.162,0.709l-0.061,0.446
		c-0.082,0.222-0.182,0.424-0.305,0.606l-1.822,2.229c-0.184-0.142-0.385-0.243-0.588-0.344L10.409,5.14l-0.02-0.811l0.02-0.202
		c0.102-0.405,0.385-0.709,0.75-0.912c0.365-0.202,0.77-0.243,1.154-0.101C12.738,3.215,13.043,3.438,13.225,3.782L13.225,3.782z
		 M6.945,4.188c0.02-0.365,0.162-0.608,0.405-0.749c0.122-0.103,0.304-0.103,0.466-0.021C8.181,3.52,8.484,3.782,8.728,4.289
		C8.829,4.491,8.93,4.694,8.971,4.938l0.405,2.39L9.072,7.429L7.269,5.463L7.167,5.261C7.006,4.896,6.905,4.553,6.945,4.188
		L6.945,4.188L6.945,4.188z M5.852,6.558L6.398,6.78l1.783,1.297C8.019,8.278,7.918,8.481,7.857,8.685L4.94,9.049L4.738,9.008
		C4.373,8.947,4.13,8.785,3.968,8.481C3.806,8.178,3.806,7.874,3.928,7.57c0.141-0.385,0.405-0.689,0.79-0.852
		C5.082,6.517,5.446,6.455,5.852,6.558L5.852,6.558L5.852,6.558z M7.775,9.858l0.142,0.405l0.061,0.142
		c-0.304,0.264-0.527,0.507-0.77,0.729l-0.607,0.506l-0.162,0.102c-0.385,0.183-0.709,0.244-1.054,0.203
		c-0.304-0.021-0.547-0.122-0.648-0.305l-0.061-0.222l0.04-0.184c0.101-0.303,0.365-0.607,0.831-0.83
		c0.243-0.101,0.445-0.202,0.607-0.243L7.775,9.858L7.775,9.858z M14.096,6.578c0.365-0.163,0.709-0.203,1.074-0.163
		c0.344,0.04,0.586,0.202,0.707,0.445l0.08,0.264l-0.039,0.203c-0.143,0.364-0.445,0.647-0.953,0.871
		c-0.201,0.101-0.424,0.142-0.666,0.182l-2.492,0.304l-0.041-0.142L11.725,8.48l0.082-0.101l2.045-1.701L14.096,6.578L14.096,6.578z
		 M8.93,8.502c0.243-0.224,0.567-0.365,0.952-0.365c0.365,0,0.709,0.143,0.932,0.365c0.284,0.283,0.405,0.588,0.405,0.952
		s-0.121,0.708-0.405,0.951c-0.263,0.264-0.567,0.405-0.932,0.405c-0.385,0-0.709-0.142-0.952-0.405
		c-0.263-0.243-0.404-0.587-0.404-0.951S8.667,8.785,8.93,8.502L8.93,8.502z M9.396,11.438c0.04,0.688,0.101,1.419,0.202,2.208
		v0.811l-0.02,0.202c-0.142,0.364-0.385,0.669-0.75,0.831c-0.365,0.202-0.75,0.243-1.114,0.142
		c-0.405-0.102-0.708-0.345-0.871-0.668c-0.101-0.202-0.182-0.446-0.182-0.689l0.101-0.466c0.041-0.202,0.142-0.405,0.304-0.566
		l1.702-2.025C8.971,11.317,9.173,11.419,9.396,11.438L9.396,11.438z M10.956,11.176l0.851,0.87l0.525,0.648l0.104,0.202
		c0.182,0.346,0.281,0.669,0.242,1.055c-0.041,0.364-0.162,0.627-0.406,0.729c-0.141,0.101-0.303,0.101-0.465,0.08
		c-0.385-0.101-0.688-0.404-0.911-0.89l-0.243-0.669l-0.304-1.763l0.345-0.121L10.956,11.176L10.956,11.176z M11.867,9.92
		l2.289-0.202l0.809-0.021l0.205,0.021c0.305,0.101,0.586,0.282,0.748,0.587c0.203,0.223,0.303,0.526,0.303,0.871l-0.059,0.404
		c-0.102,0.406-0.346,0.709-0.689,0.871c-0.365,0.202-0.73,0.243-1.135,0.102c-0.242-0.062-0.404-0.162-0.547-0.323l-2.125-1.763
		l0.141-0.304L11.867,9.92L11.867,9.92L11.867,9.92z"/>
	<path fill="#ED2029" d="M7.775,9.858l0.142,0.405l0.061,0.142c-0.304,0.264-0.527,0.507-0.77,0.729l-0.607,0.506l-0.162,0.102
		c-0.385,0.183-0.709,0.244-1.054,0.203c-0.304-0.021-0.547-0.122-0.648-0.305l-0.061-0.222l0.04-0.184
		c0.101-0.303,0.365-0.607,0.831-0.83c0.243-0.101,0.445-0.202,0.607-0.243L7.775,9.858L7.775,9.858z"/>
	<path fill="#F6EC29" d="M8.93,8.502c0.243-0.224,0.567-0.365,0.952-0.365c0.365,0,0.709,0.143,0.932,0.365
		c0.284,0.283,0.405,0.588,0.405,0.952s-0.121,0.708-0.405,0.951c-0.263,0.264-0.567,0.405-0.932,0.405
		c-0.385,0-0.709-0.142-0.952-0.405c-0.263-0.243-0.404-0.587-0.404-0.951S8.667,8.785,8.93,8.502L8.93,8.502z"/>
</g>
</svg>
