<?xml version="1.0" encoding="utf-8"?>

<!DOCTYPE svg PUBLIC "-//W3C//DTD SVG 1.1//EN" "http://www.w3.org/Graphics/SVG/1.1/DTD/svg11.dtd">
<svg version="1.1" id="Layer_1" xmlns="http://www.w3.org/2000/svg" xmlns:xlink="http://www.w3.org/1999/xlink" x="0px" y="0px"
	 width="16px" height="14px" viewBox="0 0 16 14" enable-background="new 0 0 16 14" xml:space="preserve">
<path fill="#C24540" d="M8.629,1.548c-1.087,0-2.13,0.313-3.13,0.942l0.836,1.804c0.811-0.474,1.519-0.71,2.124-0.71
	c0.246,0,0.444,0.053,0.596,0.163c0.152,0.106,0.229,0.255,0.229,0.44c0,0.233-0.071,0.441-0.214,0.622
	C8.93,4.991,8.694,5.196,8.37,5.419C7.961,5.704,7.676,5.994,7.516,6.292S7.275,6.957,7.275,7.39v0.569h1.848V7.96V7.623
	c0-0.19,0.053-0.354,0.159-0.493c0.106-0.14,0.369-0.36,0.792-0.66c0.497-0.349,0.859-0.72,1.086-1.111
	c0.226-0.391,0.339-0.854,0.339-1.389c0-0.746-0.255-1.338-0.765-1.771C10.226,1.765,9.523,1.548,8.629,1.548"/>
<path fill="#C24540" d="M7.354,11.221c0.224,0.219,0.535,0.328,0.933,0.328c0.385,0,0.689-0.111,0.912-0.33
	c0.224-0.223,0.333-0.533,0.333-0.936S9.425,9.568,9.209,9.346C8.995,9.121,8.688,9.01,8.286,9.01c-0.417,0-0.733,0.111-0.948,0.332
	c-0.214,0.221-0.321,0.533-0.321,0.941C7.017,10.689,7.129,11.002,7.354,11.221z"/>
</svg>
