<?xml version="1.0" encoding="utf-8"?>

<!DOCTYPE svg PUBLIC "-//W3C//DTD SVG 1.1//EN" "http://www.w3.org/Graphics/SVG/1.1/DTD/svg11.dtd">
<svg version="1.1" id="Layer_1" xmlns="http://www.w3.org/2000/svg" xmlns:xlink="http://www.w3.org/1999/xlink" x="0px" y="0px"
	 width="7px" height="10px" viewBox="0 0 7 10" enable-background="new 0 0 7 10" xml:space="preserve">
<g>
	<path fill-rule="evenodd" clip-rule="evenodd" fill="#333333" d="M3.551,0.051c-1.512,0-2.741,0.908-2.741,2.025v2.559v2.417v1.404
		c0,0.842,0.927,1.527,2.067,1.527s2.068-0.686,2.068-1.527V7.764V4.636V3.57c0-0.549-0.604-1.132-1.347-1.132
		c-0.742,0-1.347,0.583-1.347,1.132v4.549c0,0.137,0.151,0.248,0.337,0.248s0.336-0.111,0.336-0.248V3.57
		c0-0.274,0.303-0.498,0.673-0.498c0.372,0,0.673,0.223,0.673,0.498v1.066v3.128v0.693c0,0.567-0.625,1.03-1.394,1.03
		c-0.769,0-1.394-0.463-1.394-1.03V7.053V4.636V2.077c0-0.842,0.927-1.327,2.067-1.327c1.14,0,2.067,0.484,2.067,1.327v6.255
		c0,0.137,0.15,0.248,0.336,0.248c0.188,0,0.338-0.111,0.338-0.248V2.077C6.292,0.959,5.063,0.051,3.551,0.051z"/>
</g>
</svg>
