<?xml version="1.0" encoding="utf-8"?>

<!DOCTYPE svg PUBLIC "-//W3C//DTD SVG 1.1//EN" "http://www.w3.org/Graphics/SVG/1.1/DTD/svg11.dtd">
<svg version="1.1" id="Layer_1" xmlns="http://www.w3.org/2000/svg" xmlns:xlink="http://www.w3.org/1999/xlink" x="0px" y="0px"
	 width="20px" height="40px" viewBox="0 0 20 40" enable-background="new 0 0 20 40" xml:space="preserve">
<g>
	<path fill="#69A3BC" d="M11.742,25.549h-3l0.355,6.362h2.292L11.742,25.549z M9.16,35.21c0.259,0.226,0.617,0.339,1.076,0.339
		c0.454,0,0.808-0.113,1.06-0.339c0.252-0.227,0.379-0.541,0.379-0.945c0-0.409-0.124-0.726-0.366-0.952
		c-0.242-0.228-0.6-0.338-1.072-0.338c-0.477,0-0.84,0.11-1.09,0.338c-0.25,0.227-0.375,0.543-0.375,0.952
		C8.77,34.669,8.9,34.983,9.16,35.21z"/>
</g>
<g>
	<path fill="#999999" d="M11.742,5.559h-3l0.355,6.362h2.291L11.742,5.559z M9.16,15.219c0.258,0.225,0.618,0.339,1.076,0.339
		c0.454,0,0.808-0.114,1.06-0.339c0.252-0.226,0.379-0.541,0.379-0.945c0-0.407-0.123-0.725-0.366-0.951
		c-0.242-0.228-0.6-0.339-1.072-0.339c-0.478,0-0.841,0.112-1.09,0.339c-0.25,0.226-0.375,0.544-0.375,0.951
		C8.77,14.679,8.899,14.993,9.16,15.219z"/>
</g>
</svg>
