<?xml version="1.0" encoding="utf-8"?>

<!DOCTYPE svg PUBLIC "-//W3C//DTD SVG 1.1//EN" "http://www.w3.org/Graphics/SVG/1.1/DTD/svg11.dtd">
<svg version="1.1" id="Layer_1" xmlns="http://www.w3.org/2000/svg" xmlns:xlink="http://www.w3.org/1999/xlink" x="0px" y="0px"
	 width="16px" height="14px" viewBox="0 0 16 14" enable-background="new 0 0 16 14" xml:space="preserve">
<g>
	<path fill="#C24640" d="M9.742,1.549h-3l0.355,6.362H9.39L9.742,1.549z M7.16,11.21c0.259,0.226,0.617,0.339,1.076,0.339
		c0.454,0,0.808-0.113,1.06-0.339c0.252-0.227,0.379-0.541,0.379-0.945c0-0.409-0.124-0.726-0.366-0.952
		c-0.242-0.228-0.6-0.338-1.072-0.338c-0.477,0-0.84,0.11-1.09,0.338C6.895,9.539,6.77,9.855,6.77,10.265
		C6.77,10.669,6.9,10.983,7.16,11.21z"/>
</g>
</svg>
