<?xml version="1.0" encoding="utf-8"?>

<!DOCTYPE svg PUBLIC "-//W3C//DTD SVG 1.1//EN" "http://www.w3.org/Graphics/SVG/1.1/DTD/svg11.dtd">
<svg version="1.1" id="Layer_1" xmlns="http://www.w3.org/2000/svg" xmlns:xlink="http://www.w3.org/1999/xlink" x="0px" y="0px"
	 width="20px" height="40px" viewBox="0 0 20 40" enable-background="new 0 0 20 40" xml:space="preserve">
<g>
	<path id="path28" fill="#98B2DD" d="M9.136,1.521C8.824,1.562,8.506,1.558,8.193,1.606C7.592,1.699,7.017,1.886,6.454,2.11
		C6.25,2.192,6.047,2.284,5.849,2.38C5.775,2.416,5.662,2.444,5.603,2.502c-0.031,0.03-0.028,0.1-0.031,0.14
		C5.561,2.754,5.546,2.867,5.536,2.979C5.494,3.413,5.464,3.86,5.526,4.293c0.02,0.14,0.063,0.395,0.236,0.421
		C6.027,4.756,6.232,4.43,6.363,4.25c0.303-0.42,0.649-0.812,1.146-1C8.095,3.03,8.767,2.978,9.386,2.935
		c1.74-0.12,3.641,0.199,4.922,1.479c0.183,0.183,0.354,0.375,0.501,0.588c0.574,0.831,0.878,1.775,1.023,2.768
		c0.069,0.466,0.116,0.937,0.01,1.401c-0.185,0.805-0.668,1.506-1.223,2.102c-0.381,0.408-0.81,0.777-1.255,1.112
		c-0.248,0.188-0.527,0.347-0.761,0.551c-0.269,0.236-0.493,0.53-0.663,0.846c-0.459,0.847-0.581,1.865-0.447,2.811
		c0.028,0.193,0.053,0.389,0.098,0.579c0.013,0.058,0.016,0.156,0.053,0.202c0.068,0.088,0.258,0.136,0.363,0.141
		c0.11,0.006,0.184-0.079,0.211-0.179c0.045-0.169,0.019-0.356-0.008-0.527c-0.057-0.349-0.105-0.7-0.09-1.055
		c0.027-0.654,0.281-1.265,0.734-1.738c0.461-0.482,1.085-0.761,1.608-1.165c1.057-0.814,2.003-1.913,2.367-3.221
		c0.13-0.467,0.173-0.963,0.113-1.444c-0.074-0.609-0.298-1.217-0.507-1.791c-0.64-1.747-1.737-3.409-3.479-4.208
		c-0.691-0.317-1.414-0.462-2.162-0.566c-0.352-0.049-0.702-0.079-1.055-0.094C9.545,1.518,9.332,1.496,9.136,1.521"/>
	<path id="path30" fill="#98B2DD" d="M6.411,12.834c-0.339,0.049-0.438,0.321-0.375,0.628c0.08,0.393,0.389,0.691,0.695,0.929
		c0.785,0.604,1.798,0.932,2.786,0.888c0.386-0.018,0.805-0.081,1.16-0.244c0.189-0.087,0.388-0.403,0.129-0.538
		c-0.035-0.02-0.082-0.03-0.121-0.037c-0.113-0.019-0.239,0.03-0.346,0.061c-0.188,0.054-0.377,0.109-0.571,0.141
		c-0.58,0.093-1.207-0.039-1.687-0.383C7.692,14,7.378,13.633,7.082,13.263C6.9,13.036,6.736,12.787,6.411,12.834"/>
	<path id="path32" fill="#98B2DD" d="M5.97,14.754c-0.086,0.012-0.186,0.008-0.259,0.063c-0.155,0.113,0.016,0.341,0.096,0.444
		c0.236,0.299,0.546,0.548,0.855,0.766c0.862,0.61,1.839,0.962,2.889,1.034c0.302,0.021,0.609-0.001,0.908-0.051
		c0.109-0.018,0.245-0.026,0.346-0.073c0.286-0.134,0.203-0.674-0.052-0.793c-0.111-0.053-0.29,0.017-0.406,0.033
		c-0.276,0.038-0.553,0.042-0.831,0.035c-0.728-0.018-1.502-0.242-2.137-0.596c-0.249-0.139-0.478-0.308-0.692-0.496
		c-0.13-0.115-0.264-0.303-0.433-0.36C6.176,14.733,6.051,14.743,5.97,14.754"/>
	<path id="path34" fill="#98B2DD" d="M6.143,16.371c-0.124,0.014-0.216,0.078-0.297,0.17c-0.056,0.063-0.109,0.119-0.141,0.198
		C5.529,17.176,6,17.588,6.324,17.795c0.361,0.229,0.757,0.398,1.159,0.542c0.908,0.323,1.972,0.53,2.915,0.241
		c0.28-0.086,0.557-0.242,0.762-0.455c0.114-0.119,0.193-0.3-0.018-0.376c-0.125-0.046-0.276,0.069-0.39,0.115
		c-0.267,0.107-0.544,0.189-0.831,0.225c-0.377,0.045-0.717-0.038-1.081-0.129C8.53,17.88,8.216,17.802,7.916,17.69
		c-0.256-0.096-0.511-0.209-0.735-0.368c-0.067-0.047-0.147-0.09-0.203-0.15c-0.179-0.202-0.314-0.438-0.507-0.631
		C6.388,16.458,6.27,16.357,6.143,16.371"/>
	<path id="path26" fill="#98B2DD" d="M9.508,9.924c0-0.251-0.046-0.525-0.192-0.735c-0.292-0.422-0.919-0.556-1.356-0.29
		c-0.221,0.134-0.343,0.369-0.413,0.61c-0.138,0.479-0.074,1.024,0.022,1.504c0.031,0.154,0.062,0.308,0.105,0.459
		c0.015,0.054,0.023,0.133,0.058,0.179c0.062,0.079,0.212,0.102,0.305,0.086c0.277-0.047,0.208-0.503,0.199-0.698
		C8.214,10.584,8.08,10.143,8.21,9.69C8.265,9.499,8.371,9.284,8.564,9.2c0.175-0.075,0.351,0.017,0.42,0.188
		c0.112,0.276,0.084,0.595,0.154,0.882c0.024,0.098,0.05,0.194,0.094,0.286c0.013,0.026,0.03,0.081,0.067,0.078
		c0.09-0.008,0.218-0.158,0.285-0.214c0.218-0.18,0.441-0.373,0.692-0.505c0.118-0.063,0.313-0.165,0.433-0.058
		c0.03,0.027,0.056,0.059,0.077,0.094c0.142,0.222,0.001,0.395-0.091,0.605c-0.119,0.273-0.241,0.543-0.414,0.787
		c-0.148,0.21-0.352,0.394-0.47,0.623c-0.076,0.147-0.119,0.31-0.088,0.476c0.026,0.135,0.13,0.216,0.268,0.185
		c0.103-0.024,0.172-0.112,0.231-0.193c0.104-0.145,0.202-0.296,0.305-0.441c0.201-0.282,0.438-0.544,0.607-0.848
		c0.203-0.365,0.302-0.778,0.302-1.193c0-0.34-0.124-0.859-0.519-0.93c-0.075-0.013-0.16-0.006-0.234,0.007
		c-0.092,0.016-0.184,0.046-0.268,0.087C10.19,9.223,9.996,9.385,9.829,9.57C9.724,9.685,9.631,9.83,9.508,9.924"/>
</g>
<g>
	<path id="path28_1_" fill="#CC0000" d="M9.136,21.521c-0.312,0.041-0.629,0.036-0.943,0.084c-0.601,0.094-1.176,0.28-1.739,0.505
		c-0.205,0.082-0.407,0.174-0.605,0.27c-0.074,0.036-0.187,0.064-0.246,0.122c-0.031,0.029-0.028,0.1-0.031,0.14
		c-0.011,0.112-0.025,0.226-0.036,0.337c-0.042,0.434-0.071,0.881-0.009,1.314c0.02,0.141,0.063,0.395,0.236,0.422
		c0.265,0.041,0.47-0.285,0.601-0.465c0.303-0.42,0.649-0.812,1.146-0.999c0.586-0.222,1.257-0.273,1.877-0.315
		c1.74-0.12,3.641,0.198,4.922,1.479c0.183,0.184,0.354,0.376,0.501,0.589c0.574,0.831,0.878,1.775,1.023,2.768
		c0.069,0.466,0.116,0.937,0.01,1.401c-0.185,0.805-0.668,1.506-1.223,2.102c-0.381,0.408-0.81,0.777-1.255,1.112
		c-0.248,0.188-0.527,0.347-0.761,0.551c-0.269,0.236-0.493,0.53-0.663,0.846c-0.459,0.847-0.581,1.865-0.447,2.811
		c0.028,0.193,0.053,0.389,0.098,0.579c0.013,0.058,0.016,0.156,0.053,0.202c0.068,0.088,0.258,0.136,0.363,0.141
		c0.11,0.006,0.184-0.079,0.211-0.179c0.045-0.169,0.019-0.356-0.008-0.527c-0.057-0.349-0.105-0.7-0.09-1.055
		c0.027-0.654,0.281-1.265,0.734-1.738c0.461-0.482,1.085-0.761,1.608-1.165c1.057-0.814,2.003-1.913,2.367-3.221
		c0.13-0.468,0.173-0.963,0.113-1.444c-0.074-0.609-0.298-1.217-0.507-1.791c-0.64-1.746-1.737-3.408-3.479-4.208
		c-0.691-0.317-1.414-0.462-2.162-0.566c-0.352-0.049-0.702-0.079-1.055-0.095C9.545,21.518,9.332,21.496,9.136,21.521"/>
	<path id="path30_1_" fill="#CC0000" d="M6.411,32.834c-0.339,0.049-0.438,0.321-0.375,0.628c0.08,0.393,0.389,0.691,0.695,0.929
		c0.785,0.604,1.798,0.932,2.786,0.888c0.386-0.018,0.805-0.081,1.16-0.244c0.189-0.087,0.388-0.403,0.129-0.538
		c-0.035-0.02-0.082-0.03-0.121-0.037c-0.113-0.019-0.239,0.03-0.346,0.061c-0.188,0.054-0.377,0.109-0.571,0.141
		c-0.58,0.093-1.207-0.039-1.687-0.383C7.692,34,7.378,33.633,7.082,33.263C6.9,33.036,6.736,32.787,6.411,32.834"/>
	<path id="path32_1_" fill="#CC0000" d="M5.97,34.754c-0.086,0.012-0.186,0.008-0.259,0.063c-0.155,0.113,0.016,0.341,0.096,0.444
		c0.236,0.299,0.546,0.548,0.855,0.766c0.862,0.61,1.839,0.962,2.889,1.034c0.302,0.021,0.609-0.001,0.908-0.051
		c0.109-0.018,0.245-0.026,0.346-0.073c0.286-0.134,0.203-0.674-0.052-0.793c-0.111-0.053-0.29,0.017-0.406,0.033
		c-0.276,0.038-0.553,0.042-0.831,0.035c-0.728-0.018-1.502-0.242-2.137-0.596c-0.249-0.139-0.478-0.308-0.692-0.496
		c-0.13-0.115-0.264-0.303-0.433-0.36C6.176,34.733,6.051,34.743,5.97,34.754"/>
	<path id="path34_1_" fill="#CC0000" d="M6.143,36.371c-0.124,0.014-0.216,0.078-0.297,0.17c-0.056,0.063-0.109,0.119-0.141,0.198
		C5.529,37.176,6,37.588,6.324,37.795c0.361,0.229,0.757,0.398,1.159,0.542c0.908,0.323,1.972,0.53,2.915,0.241
		c0.28-0.086,0.557-0.242,0.762-0.455c0.114-0.119,0.193-0.3-0.018-0.376c-0.125-0.046-0.276,0.069-0.39,0.115
		c-0.267,0.107-0.544,0.189-0.831,0.225c-0.377,0.045-0.717-0.038-1.081-0.129C8.53,37.88,8.216,37.802,7.916,37.69
		c-0.256-0.096-0.511-0.209-0.735-0.368c-0.067-0.047-0.147-0.09-0.203-0.15c-0.179-0.202-0.314-0.438-0.507-0.631
		C6.388,36.458,6.27,36.357,6.143,36.371"/>
	<path id="path26_1_" fill="#FFB400" d="M9.508,29.924c0-0.25-0.046-0.524-0.192-0.734c-0.292-0.422-0.919-0.557-1.356-0.291
		c-0.221,0.135-0.343,0.369-0.413,0.611c-0.138,0.479-0.074,1.023,0.022,1.504c0.031,0.154,0.062,0.308,0.105,0.459
		c0.015,0.055,0.023,0.133,0.058,0.179c0.062,0.079,0.212,0.102,0.305,0.087c0.277-0.047,0.208-0.504,0.199-0.698
		c-0.022-0.456-0.156-0.897-0.026-1.35c0.055-0.191,0.161-0.407,0.354-0.49c0.175-0.075,0.351,0.017,0.42,0.188
		c0.112,0.276,0.084,0.595,0.154,0.882c0.024,0.098,0.05,0.195,0.094,0.286c0.013,0.026,0.03,0.081,0.067,0.077
		c0.09-0.008,0.218-0.158,0.285-0.213c0.218-0.18,0.441-0.373,0.692-0.506c0.118-0.063,0.313-0.164,0.433-0.058
		c0.03,0.026,0.056,0.06,0.077,0.094c0.142,0.222,0.001,0.395-0.091,0.605c-0.119,0.272-0.241,0.543-0.414,0.787
		c-0.148,0.21-0.352,0.394-0.47,0.623c-0.076,0.147-0.119,0.31-0.088,0.476c0.026,0.135,0.13,0.216,0.268,0.185
		c0.103-0.024,0.172-0.112,0.231-0.193c0.104-0.145,0.202-0.296,0.305-0.441c0.201-0.282,0.438-0.544,0.607-0.848
		c0.203-0.364,0.302-0.778,0.302-1.193c0-0.34-0.124-0.858-0.519-0.931c-0.075-0.013-0.16-0.006-0.234,0.008
		c-0.092,0.016-0.184,0.045-0.268,0.086c-0.225,0.109-0.419,0.271-0.587,0.457C9.724,29.686,9.631,29.83,9.508,29.924"/>
</g>
</svg>
