<?xml version="1.0" encoding="utf-8"?>

<!DOCTYPE svg PUBLIC "-//W3C//DTD SVG 1.1//EN" "http://www.w3.org/Graphics/SVG/1.1/DTD/svg11.dtd">
<svg version="1.1" id="Layer_1" xmlns="http://www.w3.org/2000/svg" xmlns:xlink="http://www.w3.org/1999/xlink" x="0px" y="0px"
	 width="20px" height="40px" viewBox="0 0 20 40" enable-background="new 0 0 20 40" xml:space="preserve">
<g>
	<path fill="#69A3BC" d="M11.123,31.961v-0.338c0-0.19,0.053-0.354,0.159-0.493c0.106-0.14,0.369-0.36,0.792-0.66
		c0.497-0.349,0.859-0.72,1.086-1.111c0.226-0.391,0.339-0.854,0.339-1.389c0-0.746-0.255-1.338-0.765-1.771
		c-0.509-0.433-1.211-0.649-2.105-0.649c-1.087,0-2.13,0.313-3.13,0.942l0.836,1.804c0.811-0.474,1.519-0.71,2.124-0.71
		c0.246,0,0.444,0.053,0.596,0.163c0.152,0.106,0.229,0.255,0.229,0.44c0,0.233-0.071,0.441-0.214,0.622
		c-0.142,0.181-0.377,0.386-0.701,0.609c-0.409,0.284-0.694,0.574-0.854,0.873s-0.241,0.664-0.241,1.098v0.569L11.123,31.961
		L11.123,31.961z M9.354,35.222c0.224,0.218,0.535,0.327,0.933,0.327c0.385,0,0.689-0.11,0.912-0.329
		c0.224-0.223,0.333-0.534,0.333-0.936c0-0.402-0.106-0.716-0.322-0.938c-0.214-0.224-0.521-0.336-0.923-0.336
		c-0.417,0-0.733,0.112-0.948,0.332c-0.214,0.221-0.321,0.534-0.321,0.942C9.017,34.689,9.129,35.003,9.354,35.222z"/>
</g>
<g>
	<path fill="#999999" d="M11.123,11.972v-0.338c0-0.19,0.053-0.354,0.159-0.494c0.106-0.14,0.369-0.359,0.792-0.66
		c0.497-0.349,0.859-0.72,1.086-1.111c0.226-0.391,0.339-0.854,0.339-1.389c0-0.747-0.255-1.338-0.765-1.771
		c-0.509-0.433-1.211-0.65-2.105-0.65c-1.087,0-2.13,0.314-3.13,0.943l0.836,1.803c0.811-0.473,1.519-0.71,2.124-0.71
		c0.246,0,0.444,0.053,0.596,0.162c0.152,0.108,0.229,0.255,0.229,0.441c0,0.234-0.071,0.442-0.214,0.624
		C10.93,9.002,10.694,9.207,10.37,9.43c-0.409,0.284-0.694,0.574-0.854,0.872S9.275,10.967,9.275,11.4v0.57L11.123,11.972
		L11.123,11.972z M9.354,15.231c0.224,0.219,0.535,0.328,0.933,0.328c0.385,0,0.689-0.11,0.912-0.33
		c0.224-0.223,0.333-0.533,0.333-0.937c0-0.401-0.106-0.714-0.322-0.938c-0.214-0.224-0.521-0.335-0.923-0.335
		c-0.417,0-0.733,0.111-0.948,0.332c-0.214,0.222-0.321,0.534-0.321,0.94C9.017,14.7,9.129,15.013,9.354,15.231z"/>
</g>
</svg>
