<?xml version="1.0" encoding="utf-8"?>

<!DOCTYPE svg PUBLIC "-//W3C//DTD SVG 1.1//EN" "http://www.w3.org/Graphics/SVG/1.1/DTD/svg11.dtd">
<svg version="1.1" id="Layer_1" xmlns="http://www.w3.org/2000/svg" xmlns:xlink="http://www.w3.org/1999/xlink" x="0px" y="0px"
	 width="42px" height="40px" viewBox="0 0 42 40" enable-background="new 0 0 42 40" xml:space="preserve">
<g>
	<path fill="#999999" d="M16.492,12.499h-2.336v-1.311h2.164V9.682h-2.164V8.589h2.336V7.083h-4.288v6.945h4.288V12.499z"/>
	<path fill="#999999" d="M22.941,7.938c-0.63-0.57-1.524-0.855-2.685-0.855h-2.5v6.945h2.337c1.203,0,2.134-0.314,2.798-0.941
		c0.665-0.627,0.997-1.52,0.997-2.679C23.889,9.332,23.572,8.509,22.941,7.938z M21.447,11.993
		c-0.276,0.331-0.712,0.496-1.304,0.496h-0.436v-3.89h0.568c0.533,0,0.932,0.153,1.192,0.461c0.263,0.307,0.394,0.779,0.394,1.416
		C21.862,11.156,21.724,11.662,21.447,11.993z"/>
	<path fill="#999999" d="M27.144,14.029V7.083h-1.96v6.945H27.144z"/>
	<path fill="#999999" d="M31.893,8.618h1.758V7.083h-5.475v1.535h1.765v5.411h1.952V8.618z"/>
</g>
<g>
	<path fill="#69A3BC" d="M16.492,32.437h-2.336v-1.312h2.164v-1.506h-2.164v-1.092h2.336v-1.506h-4.288v6.945h4.288V32.437z"/>
	<path fill="#69A3BC" d="M22.941,27.876c-0.63-0.569-1.524-0.854-2.685-0.854h-2.5v6.945h2.337c1.203,0,2.134-0.314,2.798-0.941
		c0.665-0.627,0.997-1.52,0.997-2.68C23.889,29.27,23.572,28.446,22.941,27.876z M21.447,31.931
		c-0.276,0.331-0.712,0.496-1.304,0.496h-0.436v-3.89h0.568c0.533,0,0.932,0.152,1.192,0.461c0.263,0.307,0.394,0.778,0.394,1.415
		C21.862,31.094,21.724,31.6,21.447,31.931z"/>
	<path fill="#69A3BC" d="M27.144,33.967v-6.945h-1.96v6.945H27.144z"/>
	<path fill="#69A3BC" d="M31.893,28.556h1.758v-1.534h-5.475v1.534h1.765v5.411h1.952V28.556z"/>
</g>
</svg>
