<?xml version="1.0" encoding="utf-8"?>

<!DOCTYPE svg PUBLIC "-//W3C//DTD SVG 1.1//EN" "http://www.w3.org/Graphics/SVG/1.1/DTD/svg11.dtd">
<svg version="1.1" id="Layer_1" xmlns="http://www.w3.org/2000/svg" xmlns:xlink="http://www.w3.org/1999/xlink" x="0px" y="0px"
	 width="20px" height="40px" viewBox="0 0 20 40" enable-background="new 0 0 20 40" xml:space="preserve">
<g>
	<path fill-rule="evenodd" clip-rule="evenodd" fill="#8CE0A5" d="M9.641,32.321c-0.922,0.274-2.232-3.815-2.777-4.809
		C7.624,27.885,11.92,31.353,9.641,32.321z"/>
	<path fill-rule="evenodd" clip-rule="evenodd" fill="#8CE0A5" d="M4.964,27.513c-0.52,0.948-1.95,5.139-2.776,4.809
		C-0.09,31.353,4.206,27.885,4.964,27.513z"/>
	<path fill-rule="evenodd" clip-rule="evenodd" fill="#0DA545" d="M9.087,32.659c-0.683,0.505-1.638,0.877-2.953,0.879l-0.6-0.01
		c-1.191-0.016-2.124-0.33-2.881-0.85c0.005-0.433,0.033-0.864,0.092-1.299c0.112-0.777,0.323-1.515,0.651-2.179
		c0.354-0.634,0.771-1.125,1.253-1.473c-0.712-0.42-1.191-1.203-1.191-2.1c0-1.344,1.07-2.432,2.392-2.432s2.394,1.088,2.394,2.432
		c0,0.875-0.457,1.643-1.142,2.069c0.449,0.363,0.819,0.808,1.11,1.337c0.424,0.647,0.685,1.424,0.783,2.324
		C9.053,31.766,9.084,32.196,9.087,32.659z"/>
	<path fill-rule="evenodd" clip-rule="evenodd" fill="#A6D9E2" d="M11.246,28.006c-2.055,1.008-4.161,2.681-4.492,5.114
		c-0.08,0.585,0.209,2.19,1.217,1.622c0.327-0.185,0.42-0.671,0.558-0.993c0.51-1.194,1.019-2.39,1.529-3.582
		C10.39,29.387,11.027,28.848,11.246,28.006z"/>
	<path fill-rule="evenodd" clip-rule="evenodd" fill="#A6D9E2" d="M13.906,28.006c2.055,1.008,4.16,2.681,4.494,5.114
		c0.086,0.643-0.398,2.445-1.416,1.471c-0.211-0.164-0.354-0.828-0.455-1.066c-0.496-1.16-0.99-2.322-1.488-3.484
		C14.725,29.299,14.117,28.813,13.906,28.006z"/>
	<path fill-rule="evenodd" clip-rule="evenodd" fill="#0DA2C6" d="M17.059,35.211c-0.965,0.708-2.314,1.229-4.17,1.232l-0.848-0.016
		c-1.683-0.021-3-0.462-4.067-1.188c0.006-0.606,0.045-1.212,0.129-1.819c0.157-1.088,0.454-2.12,0.92-3.052
		c0.5-0.888,1.088-1.574,1.768-2.061c-1.007-0.589-1.682-1.687-1.682-2.941c0-1.88,1.512-3.403,3.379-3.403
		c1.865,0,3.379,1.523,3.379,3.403c0,1.226-0.645,2.301-1.611,2.899c0.633,0.51,1.156,1.132,1.564,1.869
		c0.6,0.909,0.969,1.995,1.107,3.257C17.01,33.959,17.053,34.566,17.059,35.211z"/>
</g>
<g>
	<path fill-rule="evenodd" clip-rule="evenodd" fill="#99B2DD" d="M9.641,12.127c-0.922,0.274-2.232-3.815-2.777-4.809
		C7.624,7.69,11.92,11.158,9.641,12.127z"/>
	<path fill-rule="evenodd" clip-rule="evenodd" fill="#99B2DD" d="M4.964,7.318c-0.52,0.948-1.95,5.139-2.776,4.809
		C-0.09,11.158,4.206,7.69,4.964,7.318z"/>
	<path fill-rule="evenodd" clip-rule="evenodd" fill="#99B2DD" d="M9.087,12.465c-0.683,0.505-1.638,0.877-2.953,0.879l-0.6-0.01
		c-1.191-0.016-2.124-0.33-2.881-0.85c0.005-0.433,0.033-0.864,0.092-1.299c0.112-0.777,0.323-1.515,0.651-2.179
		C3.751,8.373,4.168,7.882,4.65,7.534c-0.712-0.42-1.191-1.203-1.191-2.1c0-1.344,1.07-2.432,2.392-2.432s2.394,1.088,2.394,2.432
		c0,0.875-0.457,1.643-1.142,2.069c0.449,0.363,0.819,0.808,1.11,1.337c0.424,0.647,0.685,1.424,0.783,2.324
		C9.053,11.571,9.084,12.002,9.087,12.465z"/>
	<path fill-rule="evenodd" clip-rule="evenodd" fill="#99B2DD" d="M11.246,7.812c-2.055,1.008-4.161,2.681-4.492,5.114
		c-0.08,0.585,0.209,2.19,1.217,1.622c0.327-0.185,0.42-0.671,0.558-0.993c0.51-1.194,1.019-2.39,1.529-3.582
		C10.39,9.192,11.027,8.653,11.246,7.812z"/>
	<path fill-rule="evenodd" clip-rule="evenodd" fill="#99B2DD" d="M13.906,7.812c2.055,1.008,4.16,2.681,4.494,5.114
		c0.086,0.643-0.398,2.445-1.416,1.471c-0.211-0.164-0.354-0.828-0.455-1.066c-0.496-1.16-0.99-2.322-1.488-3.484
		C14.725,9.104,14.117,8.618,13.906,7.812z"/>
	<path fill-rule="evenodd" clip-rule="evenodd" fill="#99B2DD" d="M17.059,15.017c-0.965,0.708-2.314,1.229-4.17,1.232l-0.848-0.016
		c-1.683-0.021-3-0.462-4.067-1.188c0.006-0.606,0.045-1.212,0.129-1.819c0.157-1.088,0.454-2.12,0.92-3.052
		c0.5-0.888,1.088-1.574,1.768-2.061C9.784,7.525,9.109,6.428,9.109,5.173c0-1.88,1.512-3.403,3.379-3.403
		c1.865,0,3.379,1.523,3.379,3.403c0,1.226-0.645,2.301-1.611,2.899c0.633,0.51,1.156,1.132,1.564,1.869
		c0.6,0.909,0.969,1.995,1.107,3.257C17.01,13.765,17.053,14.372,17.059,15.017z"/>
</g>
</svg>
