<?xml version="1.0" encoding="utf-8"?>

<!DOCTYPE svg PUBLIC "-//W3C//DTD SVG 1.1//EN" "http://www.w3.org/Graphics/SVG/1.1/DTD/svg11.dtd">
<svg version="1.1" id="Layer_1" xmlns="http://www.w3.org/2000/svg" xmlns:xlink="http://www.w3.org/1999/xlink" x="0px" y="0px"
	 width="20px" height="40px" viewBox="0 0 20 40" enable-background="new 0 0 20 40" xml:space="preserve">
<g>
	<path fill="#454545" d="M15.974,35.684c-0.884-1.989-2.111-3.29-3.093-4.076c0.736-0.098,1.571-0.393,2.749-1.055l0.368-0.196
		l-0.172-0.418l-0.933-2.136l-0.221-0.49l-0.467,0.27c-0.024,0.024-1.007,0.516-2.136,0.393c1.228-0.318,2.136-1.424,2.136-2.749
		c0-1.596-1.276-2.873-2.872-2.873c-1.571,0-2.848,1.277-2.848,2.873c0,0.638,0.221,1.227,0.589,1.719
		C7.529,28,7.087,29.742,6.964,31.289c-0.049,0.393-0.074,0.516-0.074,0.564c-0.982,2.014-3.093,2.309-3.191,2.333L3.085,34.26
		l0.221,0.564l1.006,2.726l0.123,0.393l0.417-0.099c3.069-0.638,4.174-2.062,5.058-3.216c2.16,1.08,2.946,2.823,2.946,2.823
		c0.073,0.099,0.245,0.441,0.245,0.441l0.417-0.27l2.259-1.325l0.393-0.222L15.974,35.684L15.974,35.684z"/>
	<path fill="#F6D592" d="M11.334,23.384c1.031,0,1.842,0.81,1.842,1.841c0,1.007-0.811,1.816-1.842,1.816
		c-1.007,0-1.817-0.81-1.817-1.816C9.517,24.193,10.327,23.384,11.334,23.384L11.334,23.384z"/>
	<path fill="#F6D592" d="M13.494,36.518c-0.393-0.712-1.375-2.013-3.535-2.946l0,0c-0.074-0.049-0.147-0.073-0.221-0.073
		c-0.123,0-0.246,0.073-0.319,0.147l0,0L9.198,33.94c-0.786,1.055-1.669,2.233-4.124,2.872L4.411,35.02
		c0.859-0.244,2.479-0.933,3.339-2.749c0.074-0.099,0.123-0.344,0.172-0.884c0.172-2.013,0.712-3.093,1.89-3.756
		c0.295,0.172,0.614,0.319,0.982,0.393c0,0.024,0,0.073,0,0.123c0.024,0.147,0.024,0.295,0.073,0.418l0.099,0.22l0.22,0.074
		c1.204,0.417,2.383,0.073,3.021-0.196l0.564,1.252c-1.792,0.933-2.577,0.81-3.51,0.663c0,0-0.222-0.024-0.295-0.024
		c-0.271,0-0.418,0.196-0.467,0.466c-0.049,0.295,0.221,0.418,0.221,0.418c0.099,0.098,2.578,1.031,4.198,4.247L13.494,36.518
		L13.494,36.518z"/>
</g>
<g>
	<path fill="#454545" d="M16.01,16.05c-0.883-1.989-2.111-3.29-3.092-4.076c0.736-0.098,1.57-0.393,2.748-1.055l0.369-0.196
		l-0.172-0.418L14.93,8.169l-0.221-0.49l-0.467,0.27c-0.023,0.024-1.006,0.516-2.135,0.393c1.227-0.318,2.135-1.424,2.135-2.749
		c0-1.596-1.275-2.873-2.871-2.873c-1.572,0-2.849,1.277-2.849,2.873c0,0.638,0.221,1.227,0.589,1.719
		C7.565,8.366,7.124,10.108,7,11.655c-0.049,0.393-0.074,0.516-0.074,0.564c-0.982,2.014-3.093,2.309-3.191,2.333l-0.614,0.073
		l0.221,0.564l1.006,2.726l0.123,0.393l0.417-0.099c3.069-0.638,4.174-2.062,5.058-3.216c2.161,1.08,2.946,2.823,2.946,2.823
		c0.074,0.099,0.246,0.441,0.246,0.441l0.416-0.27l2.26-1.325l0.393-0.222L16.01,16.05L16.01,16.05z"/>
	<path fill="#97B2DD" d="M11.371,3.75c1.031,0,1.842,0.81,1.842,1.841c0,1.007-0.811,1.816-1.842,1.816
		c-1.007,0-1.817-0.81-1.817-1.816C9.554,4.56,10.364,3.75,11.371,3.75L11.371,3.75z"/>
	<path fill="#97B2DD" d="M13.531,16.884c-0.393-0.712-1.375-2.013-3.536-2.946l0,0c-0.074-0.049-0.147-0.073-0.221-0.073
		c-0.123,0-0.246,0.073-0.319,0.147l0,0l-0.221,0.295c-0.786,1.055-1.669,2.233-4.124,2.872l-0.663-1.793
		c0.859-0.244,2.479-0.933,3.339-2.749c0.074-0.099,0.123-0.344,0.172-0.884C8.13,9.74,8.67,8.66,9.848,7.997
		c0.295,0.172,0.614,0.319,0.982,0.393c0,0.024,0,0.073,0,0.123c0.024,0.147,0.024,0.295,0.073,0.418l0.098,0.22l0.221,0.074
		c1.203,0.417,2.383,0.073,3.02-0.196l0.564,1.252c-1.791,0.933-2.576,0.81-3.51,0.663c0,0-0.221-0.024-0.295-0.024
		c-0.27,0-0.417,0.196-0.466,0.466c-0.049,0.295,0.221,0.418,0.221,0.418c0.099,0.098,2.578,1.031,4.199,4.247L13.531,16.884
		L13.531,16.884z"/>
</g>
</svg>
