<?xml version="1.0" encoding="utf-8"?>

<!DOCTYPE svg PUBLIC "-//W3C//DTD SVG 1.1//EN" "http://www.w3.org/Graphics/SVG/1.1/DTD/svg11.dtd">
<svg version="1.1" id="Layer_1" xmlns="http://www.w3.org/2000/svg" xmlns:xlink="http://www.w3.org/1999/xlink" x="0px" y="0px"
	 width="27px" height="27px" viewBox="0 0 27 27" enable-background="new 0 0 27 27" xml:space="preserve">
<g>
	<g>
		<rect x="7" y="9" fill-rule="evenodd" clip-rule="evenodd" fill="#F24E06" width="13" height="2"/>
	</g>
</g>
<g>
	<g>
		<rect x="7" y="12.875" fill-rule="evenodd" clip-rule="evenodd" fill="#F24E06" width="13" height="2"/>
	</g>
</g>
<g>
	<g>
		<rect x="7" y="16.406" fill-rule="evenodd" clip-rule="evenodd" fill="#F24E06" width="6.781" height="2"/>
	</g>
</g>
<path fill-rule="evenodd" clip-rule="evenodd" fill="#D8D8D8" d="M13.5,26C6.596,26,1,20.403,1,13.5C1,6.596,6.596,1,13.5,1
	C20.403,1,26,6.596,26,13.5C26,20.403,20.403,26,13.5,26z M13.5,4C8.253,4,4,8.253,4,13.5c0,5.247,4.253,9.5,9.5,9.5
	c5.247,0,9.5-4.253,9.5-9.5C23,8.253,18.747,4,13.5,4z"/>
</svg>
